{"scene":0,"scenes":[{"nodes":[0]}],"asset":{"version":"2.0","generator":"https://github.com/mikedh/trimesh"},"accessors":[{"componentType":5125,"type":"SCALAR","bufferView":0,"count":10616976,"max":[1826139],"min":[0]},{"componentType":5126,"type":"VEC3","byteOffset":0,"bufferView":1,"count":1826140,"max":[56.80153274536133,89.82843780517578,116.75759887695312],"min":[-53.54324722290039,-43.70643997192383,-175.24630737304688]},{"componentType":5126,"type":"VEC2","byteOffset":0,"bufferView":3,"count":1826140,"max":[0.9984300136566162,0.9992600083351135],"min":[0.0007399999885819852,0.000750000006519258]}],"meshes":[{"name":"Matrix_OBJ2.obj","extras":{"processed":true},"primitives":[{"attributes":{"POSITION":1,"TEXCOORD_0":2},"indices":0,"mode":4,"material":0}]}],"images":[{"bufferView":2,"mimeType":"image/png"}],"textures":[{"source":0}],"materials":[{"pbrMetallicRoughness":{"baseColorTexture":{"index":0},"baseColorFactor":[0.4,0.4,0.4,1.0],"roughnessFactor":0.9036020036098448},"doubleSided":false}],"nodes":[{"name":"world","children":[1]},{"name":"Matrix_OBJ2.obj","mesh":0}],"buffers":[{"uri":"gltf_buffer_0.bin","byteLength":42467904},{"uri":"gltf_buffer_1.bin","byteLength":21913680},{"uri":"gltf_buffer_2.bin","byteLength":66838472},{"uri":"gltf_buffer_3.bin","byteLength":14609120}],"bufferViews":[{"buffer":0,"byteOffset":0,"byteLength":42467904},{"buffer":1,"byteOffset":0,"byteLength":21913680},{"buffer":2,"byteOffset":0,"byteLength":66838472},{"buffer":3,"byteOffset":0,"byteLength":14609120}]}